<svg viewBox="-2 -32 239 119" xmlns="http://www.w3.org/2000/svg">
<circle cx="0" cy="0" fill="black" r="0.25"/>
<circle cx="0" cy="50" fill="black" r="0.25"/>
<circle cx="0" cy="100" fill="black" r="0.25"/>
<circle cx="50" cy="0" fill="black" r="0.25"/>
<circle cx="50" cy="50" fill="black" r="0.25"/>
<circle cx="50" cy="100" fill="black" r="0.25"/>
<circle cx="100" cy="0" fill="black" r="0.25"/>
<circle cx="100" cy="50" fill="black" r="0.25"/>
<circle cx="100" cy="100" fill="black" r="0.25"/>
<circle cx="150" cy="0" fill="black" r="0.25"/>
<circle cx="150" cy="50" fill="black" r="0.25"/>
<circle cx="150" cy="100" fill="black" r="0.25"/>
<circle cx="200" cy="0" fill="black" r="0.25"/>
<circle cx="200" cy="50" fill="black" r="0.25"/>
<circle cx="200" cy="100" fill="black" r="0.25"/>
<path d="M0,0 L75,0 L75,-30 L158,-30 L158,53 L146,53 L146,4 L217,4 L217,11 L145,11" fill="none" stroke="green" stroke-width="1"/>
<path d="M0,0 L0,62 L66,62 L66,117 L100,117 L100,46 L155,46 L155,-12 L238,-12" fill="none" stroke="blue" stroke-width="1"/>
<circle cx="155" cy="11" fill="purple" r="0.4"/>
<text x="155" y="11">
155,11
</text>
<circle cx="146" cy="46" fill="purple" r="0.4"/>
<text x="146" y="46">
146,46
</text>
<circle cx="155" cy="4" fill="purple" r="0.4"/>
<text x="155" y="4">
155,4
</text>
<circle cx="158" cy="-12" fill="purple" r="0.4"/>
<text x="158" y="-12">
158,-12
</text>
<circle cx="155" cy="4" fill="red" r="0.5"/>
</svg>